<?xml version="1.0" encoding="utf-8"?>
<!DOCTYPE svg PUBLIC "-//W3C//DTD SVG 1.1//EN" "http://www.w3.org/Graphics/SVG/1.1/DTD/svg11.dtd">
<svg xmlns="http://www.w3.org/2000/svg" xmlns:xlink="http://www.w3.org/1999/xlink" version="1.1" baseProfile="full" width="163.854" height="163.854" viewBox="0 0 163.85 163.85" enable-background="new 0 0 163.85 163.85" xml:space="preserve">
	<path fill="#858585" fill-opacity="1" fill-rule="evenodd" stroke-width="0.640055" stroke-linejoin="round" d="M 1.47224,110.049C 2.07103,94.5198 6.60471,72.9008 10.5396,57.5747C 14.4745,42.2486 17.8106,33.2153 23.4991,28.6479C 29.1876,24.0805 37.2284,23.979 42.172,26.196C 47.1156,28.4128 48.9618,32.9482 55.2919,35.0288C 61.6219,37.1095 72.4357,36.7356 81.8987,36.6214C 91.3617,36.5073 99.4738,36.6528 105.162,34.8259C 110.851,32.9989 114.116,29.1994 119.512,27.249C 124.908,25.2985 132.436,25.197 138.064,29.2664C 143.691,33.3357 147.42,41.5759 151.996,57.2064C 156.573,72.8371 161.997,95.8581 162.382,111.628C 162.767,127.398 158.112,135.916 151.005,138.298C 143.898,140.679 134.339,136.924 127.432,129.781C 120.524,122.638 116.268,112.108 104.261,106.817C 92.2527,101.527 72.4927,101.477 60.1107,106.742C 47.7286,112.008 42.7245,122.589 35.1933,129.761C 27.6621,136.932 17.6039,140.694 10.9067,137.856C 4.20956,135.017 0.873455,125.578 1.47224,110.049 Z "/>
	<path fill="#CBCBCB" fill-opacity="1" fill-rule="evenodd" stroke-width="0.640055" stroke-linejoin="round" d="M 1.47225,110.049C 2.07104,94.5197 6.60472,72.9008 10.5396,58.4068C 14.4745,43.9127 17.8106,36.5436 23.4991,32.8083C 29.1875,29.073 37.2284,28.9715 42.172,30.3563C 47.1155,31.7411 48.9618,34.6123 55.2919,35.8609C 61.6219,37.1095 72.4357,36.7356 81.8987,36.6214C 91.3617,36.5073 99.4738,36.6528 105.162,35.6579C 110.851,34.6631 114.116,32.5278 119.512,31.4094C 124.908,30.291 132.436,30.1895 138.063,33.4267C 143.691,36.664 147.42,43.24 151.996,58.0385C 156.573,72.8371 161.997,95.8581 162.382,111.628C 162.767,127.398 158.112,135.916 150.717,137.782C 143.323,139.647 133.188,134.86 126.28,126.469C 119.373,118.078 115.693,106.083 103.973,100.061C 92.2525,94.0387 72.4926,93.9885 60.4466,100.019C 48.4005,106.05 44.0684,118.161 36.5372,126.581C 29.006,135 18.2759,139.728 11.2427,137.373C 4.20957,135.017 0.873464,125.578 1.47225,110.049 Z "/>
	<rect x="26.0923" y="60.3475" fill="#494949" fill-opacity="1" fill-rule="evenodd" stroke-width="0.640055" stroke-linejoin="round" width="43.737" height="13.5804"/>
	<rect x="41.1481" y="45.3796" fill="#494949" fill-opacity="1" fill-rule="evenodd" stroke-width="0.640055" stroke-linejoin="round" width="13.5804" height="44.3362"/>
	<ellipse fill="#F8C300" fill-opacity="1" fill-rule="evenodd" stroke-width="0.640055" stroke-linejoin="round" stroke="#8C8C8C" stroke-opacity="1" cx="115.875" cy="53.3372" rx="6.79022" ry="6.79022"/>
	<ellipse fill="#0D8FEA" fill-opacity="1" fill-rule="evenodd" stroke-width="0.640055" stroke-linejoin="round" stroke="#8C8C8C" stroke-opacity="1" cx="102.328" cy="67.1009" rx="6.79022" ry="6.79021"/>
	<ellipse fill="#D54909" fill-opacity="1" fill-rule="evenodd" stroke-width="0.640055" stroke-linejoin="round" stroke="#8C8C8C" stroke-opacity="1" cx="129.456" cy="67.1009" rx="6.79022" ry="6.79021"/>
	<ellipse fill="#25C425" fill-opacity="1" fill-rule="evenodd" stroke-width="0.640055" stroke-linejoin="round" stroke="#8C8C8C" stroke-opacity="1" cx="115.913" cy="80.7278" rx="6.79022" ry="6.79021"/>
</svg>
